<svg xmlns="http://www.w3.org/2000/svg" viewBox="123.31 0 595.28 595.28">
  <title>gplus</title>
  <path d="M332.16 336.93h93c-16.32 46.16-60.54 79.25-112.3 78.87-62.81-.46-114.74-50.71-117.18-113.47-2.61-67.28 51.36-122.84 118.07-122.84 30.5 0 58.33 11.62 79.32 30.66 4.97 4.51 12.54 4.54 17.42-.06l34.16-32.15c5.34-5.03 5.36-13.52.04-18.57-33.28-31.53-77.92-51.18-127.14-52.14-105-2.05-193.5 84.04-194.23 189.05-.74 105.8 84.81 191.8 190.44 191.8 101.58 0 184.57-79.54 190.13-179.73.15-1.26.25-43.71.25-43.71H332.16c-7.05 0-12.76 5.71-12.76 12.76v46.76c0 7.05 5.71 12.77 12.76 12.77zM661.71 268.89V223.2c0-6.18-5.01-11.18-11.18-11.18h-38.46c-6.18 0-11.18 5.01-11.18 11.18v45.69H555.2c-6.18 0-11.18 5.01-11.18 11.18v38.46c0 6.18 5.01 11.18 11.18 11.18h45.69v45.69c0 6.18 5.01 11.18 11.18 11.18h38.46c6.18 0 11.18-5.01 11.18-11.18v-45.69h45.69c6.18 0 11.18-5.01 11.18-11.18v-38.46c0-6.18-5.01-11.18-11.18-11.18h-45.69z"/>
</svg>
